<mxfile host="Electron" modified="2024-10-26T14:08:46.474Z" agent="Mozilla/5.0 (Windows NT 10.0; Win64; x64) AppleWebKit/537.36 (KHTML, like Gecko) draw.io/24.4.8 Chrome/124.0.6367.207 Electron/30.0.6 Safari/537.36" etag="9gPTZ9EbR5ZezpLNZL1F" version="24.4.8" type="device">
  <diagram name="第 1 页" id="nUEJrHHS7cH4jLieOyd9">
    <mxGraphModel dx="1802" dy="909" grid="1" gridSize="10" guides="1" tooltips="1" connect="1" arrows="1" fold="1" page="1" pageScale="1" pageWidth="3300" pageHeight="4681" math="0" shadow="0">
      <root>
        <mxCell id="0" />
        <mxCell id="1" parent="0" />
        <mxCell id="6wUznwKkk6pUSenvLdBu-1" value="" style="shape=image;verticalLabelPosition=bottom;labelBackgroundColor=default;verticalAlign=top;aspect=fixed;imageAspect=0;image=data:image/png,iVBORw0KGgoAAAANSUhEUgAABC4AAABUCAYAAABN2XYSAAAgAElEQVR4Ae1dO7LrtrLdc/AEbu5ypMg3dujAA1Ds5E6CmVPPgXNw6IyjOLHGwfdACWQvoPEjmx9przp1Slsk2OjP6g+aIPX19fU18j91QAwQA8QAMUAMEAPEADFADBADxAAxQAwQAxfFAA1zUcOwocSmGjFADBADxAAxQAwQA8QAMUAMEAPEADHARTsbN8QAMUAMEAPEADFADBADxAAxQAwQA8QAMXBhDNA4FzYOO2vsrhIDxAAxQAwQA8QAMUAMEAPEwIdi4L/jL/04/vGv+N//Pf5Ee3+ovTf1HjZdTIXSqYgBYoAYIAaIAWKAGCAGiAFigBggBlZggI0L3kSv7kdUD8wA8TZ2w2N8PJ7/h+6WGWsxH2kQ4MTAe2MAY0Z/pz3f2560H+1HDBADxAAxQAwQA2swwMYFcVONm+qBmWYELkLYuLDQKWl8HydG//ENwOrPoRtvb9fhR5nZuKC/fx9/p63bbX0f+9eNkWdc7Md7S8y73ceuH8ZB0hiGcejv4+3WaI/bbbx3/TiImzUTT8Mw9t0Kei85bhqPj8c4bKTbrutYH4633ulL6u/h9NeN91b9tdjtncfe7hNOJr2FWJns2o/d/VaZuzFf1tQGp+ZUDctr/c1hwJqeNa6s+bOmZyzvT7//Pf7a/xh/k491/Ptj/O2vv8f//PzfzFoxji1LfGLjYtFFTk8892WjKAyqbFwQWDa4+i56RP+pKUpgTH9fmSjO1C/KfGqRZZzU67AvF2LD2LH4f0MM5/yH9q3zg5wOl3P3ftnR+Yx99Y2Lez/Mu0Ehbs6L8GHs73W7RG+uYTFfF/Lkv7sGRh29SUdTU8Bfm/usl9lO9xindf09ng2gU+Kox8jF/O3eFzAn7VyDvzo7SPuclVMt/c3h2JqenW88sWfNnzU9W3mV5gI0L17vp1j1bgqF9io6Pibw09b2l9KnBTMYVNm4sNApaXyw0wWLNPQfWXzU/H1WgbLNPijze8qwxUcvVmifuujYoserXkv7bosPwq63TmkW1C3ib12pabEsIIsxqGkx+hjr6iCJk4UXPe7XyWym9y+M0TpPgudTG+hSjxdoBDdixek2j5dGWzweYxHPO8R8U3/7+hqt6dn5xjM+WfNnTc9W3j/HX7UmRepYc9OBjQtbe4kcuoOvn8yrhXAYVPMB2GI+0jgZNMHCm/Y40h5w9/EtHxNxeMGYcUaRdaTN4rkuVmh/XmI7OUbRvjHm1+SJJU4MvdztULGIDxseQw+PNdzuYUMkR1Pa0y3Wn3fJ4RG91/buZYFfWkAvss3XTDwGuzWmR1O6sXfnDvTTcBEVPRbi5A0egTgvjkv7lPS+BoeN17jGxfSITzfe3eMgt8CmX6/HjWD3To5vxMola2xTf3OPhwT+ucl/G+1X42fW/FnTq5GhYcx//hK/9pFqVoTH//rz5Dy8g90bdGaTAymDokcLpbxBUCXYGEA+AgOyQCvdpbHw7b1oYMw4r+DdS74SXWnHXMFaosPzSlK7QKyjfS3ssiyeXdNBLmTKi3ho8D4S44FmOp4ufDybFrlHu+TY3AJTjpsaF+59G5fJURK/j/GR3E1xG0HPpzXSJb9vFE8r8Rc2+nO4svC7NTQABxv9zc1vTW+NTLlrrPmzppfjvfncz38H77NwTYwf4y+/L++z+On3f/QxP7NGadb3ZfLAZW1nwRguQq4YVAkcCzuTxuk4gi2ob1SgRYEYYwYbF/St030rwugWm7zpQspUB1v0565ddDjFB1jkJRoRM//Lta4pkIsv0EBILLxhUZFcxHt5RWxL0AsXoo/kOE/z4E/IMwVdg13OyknS3mfxsM5GgK0kDgSmio+VrONjW/yV+t/ub9L3Lfx3m2yaPr+XvNpui19/V/Ty+z/jH8Gui9/+tzQ37O2g8DDnAJ77YH3XGFd7i/brjdwTSBqDKiQ6kRQTb9Kd3tS9Zh4FwKkiRSaPYuMFknrubsRLt6vlrbHNujGUN6O3VvsqONsnYKCfpe+CZWRbzSvOnVsIfIH+hH/D3Al6r7fXz1unxdvX8zpN0IM5X3rZyF/46wRDsIU15hN5k7KV/27U32p598DMi+YO8c9t83dv60f9+V85CLdll2XbRm8P+5Z5jnH2WdfMOcov5lI42op5oKstetG+xfoA7hZr9OJt8Nl4qsm38zGok1oaNU2L6mddGfmx/xWVpIxoD4wB4p0b8BiGP56Kpyf6jsxHHuuR7ChzDQYPjQ9ShtRuCy9T0d++xroa4mWzGnp+bqvPbyVvy7sn6sf+9L8fUZMjbHr8UfueDKVh4hsr006QXjzm0v8YfxU7RQ71Eyv8kU4hYENQ8MFffrpE0BhUgeYzkdzu8vlVSf/19yt5zsWMS0rFhBrKluOztoOK4x6lIO0AtkHe/ZwK5UgXTjiO8oaYOvA74Ch/V8MeN+g7abzUFh0xPSiWtaIzWdQ5G8T0kjqoKjoUeoUYldYJ0rIptJFmeu5ae+yIY8BtW7yPbFj5Cwzuefyqbfcm9NAWNvbd0R7vUPTMPioW/gqOIny8ZINYko0bTs+Y42JfQvvG52Nbyfm18fJ8VU491GYob80iubUuq/51FvXXXpC/t/e3GeuPMb3zBmWusUnKN/Y4Dnje7G/BSzkN6Okyo9+3+OF7yhvHKV0vwTjlMZHcLop4d8Y/43+U+HVE4yLmRTQw+P6NCzxSG2BNwUkCo5kLoVBQmgl+cTH0Yy9e0lQMqkA3fHY1MY9vUlQF+ZRMGKiigiLkS1EiBKyHKKqUsbPCQ7rwvSBvju7Wc8CHfieC8qawdPxxtIVurxlzW7ERXY+FU+Q7crz00WRjL6DXyefXEz6RbVYG9O4Z+6zh746xQy+WUzZB3vRrUzLX0dxuj4y+pG3X/B3GGfiekNvHe5ivxgaCXmPBW7RLkt4e9t3RHqDTK84j9ClxALhJ+cVTnraFtJhP3TFQOh/rUM6v1UPyfHqxGtPdL77LudDPsrHlhSXITUk/8bYJd0oJn/U15fyp2RntUfTbmZabR6MnZT/+b9CdxDv4aSDz0I+DqLmdDtzOv869CBSuO0YewHNSBs8LylL0DwN6ut8gzluw8Z7yev03fmZ2M2h6jRsSP8ZflPdcxONEU8E/brJlx8Vf8WMr4Y4OvytDk4PHGnFybNxJMYfBZQqMHb486rm9Nk46WiACEEABMiwBOPlG7X76nfCJBlzbmIQqroUkEiZguD79Ii+Q1RkTrmuUd2cwUF6Bf7BTg313ttETT5hkiz5mzhPGg2wxu6Ix4IvPwb2g7iZtcoemqBunz30Ef8PYd7IwDF5Ml+RNyDPbRdqzsgE6X+voWcur8Wh0DPxqffyDYtEV6hVYyfmJNT2M+1vta6R7wMx70FxyUuAXgKNc7kffyGHA2wywoCyUSuc9necnzh/vDMXzM3/FR2WPst8K7MqYH9ZNAoOLbX3d+Pp1Fhnzv27jUlvm7Cz1sYJnwRfaT9Ld+2/Jdyq3OR4QMz5fqp+ugQH63FsG5G3Gc0a/eX+yppeSH3Vf37iw5s+aXkrelccbGxdfleP3blyETQr1O3ddvOuuiwSYZSLKFuSh81cs+KAAeSawmmD3TC5yvqCwyQTK6VopUya5yqC68IXBJS5GEnp0PG2SN0O3JG/lecrrdLzBvpV63lQcSezW7vQx5Qv1ozcPXlgFXlOFJ9JzBdjiayHmg7Gq7+KYPfjTaeK89XFhQxyb7Irz6ry12CPUueF3i/gX0NiGlTgmb6YX+dpW+xrqP+LtwrSFnSObiHP5RUaDb7x0I3Og5sO44M7XHThWe6QV+ZvkBNn8ol5+Phf4m3JILQ6Al7ysMz9VMV/6RO6xiAWft66r/AlYSbuS51p97DiuhLtZv2F9ArtIJE7830fqAPGczUVV/mZNb8HTok93TGLG6S1Vq4TXW/NnTS/kd9v3uMGg76CYdVvZuJjHz/5V/36M6FplTteo+O1/f44/vei7d13EzQv9MZaI/szjNl2Srpn+dEIQUNWFgrgOklZuAfK6BhJjXQKTBpe8hUFSFg25c1pxsswhA9orAYCMtQHORt6FL6FzU0eivE0vgzLVfZ1NJebP2VrckFyrfAXpFYsGoKkVZUgv9H3wIaCV8mWkl9O5jDm5ccADFE2aPCVcIH/b5S3Nt+H8xnjv9AY6LhWYMJ+uW2t6aFunKyWmnhA3Yr422PEA/pc4p/gl2FU5P/OX8g23Q+r1mEJwVxrwoOy4QHu6Rc5rp8A8p2uG3Uf34t6pCStfHBvRC/jrJFb8wlP/zPq55GXL36Bn3X8iXNXEVBhTSbdaDqlDa9o7+UyTPhxm3I6/+3i/yV1/jje5Q0XiJucjljIFeJ4f01zrb9b0UrJKzDi91erLmj9reil51x23aFzk3omxxBLjxkX0mIlC/182Lhb9r8PHSddrzKIjRXc+omSCAaA4HhJjRaMjmE8WGTgX8h02J5aiKLcl76UP4HEYh7nDvSIpAq12eQ8BBvBIeQ/ReYDr5Jxgmwrs1tJtGoe+lS2goSBLFQNIL/TVWBcYY+L5kV58XsS5FfxhnBG0nA4lvVKTd9a5lGdFTAnuwG2XN5Bp5tPgeIDfrC4T88rYXcYKYkGbz5peHq9r7Gug94QuY14vMpfwIxXPgKNUXHGyoP1nWnA97oSQNUUKXzBmrgfkQvH199CNXS+OFxoXw6vJMbhHceUW/5v71Y3gfRDV8WWDTUFPldgVtkstANt8rpX/rfG0db6N40HHdjk9xKgW++z939rfrOlttFUUR635s6ZnK++7Ni60Zkn8ss7C7pHI9ra6tffFb8OfJqhMAjVBFR2vGCwhaFcmRgkgeT0kcuQb735KHuvmDJNAfju7psfXMcmvxTZ/KBJEgTQXU3XyhU5Dea/ZVEK75Ar2DAal/6z6W/pPISYAPlP8Ir1izAgWI/F4pDcvVjRZV/C3nV5oGxmr1virtbwhf4bfDeKfXPTEto95LY0vnQ9jY+t4vEO/xr6xTCFPn/Vd+APkdKEHwFEqrrjxKd+4zTsiHsGOC2nfVOPC6RtjsZJ73Xu64OdQsUHytBny5+qK+vhSGKvFu9ZjoOdK7BZjKspc48Nt+Bb4saixWnXWMh70a11zoJ6xBha+1MJvcSzOuWB5rb9Z07OW25o/a3q28lo0LupegqnsiIh2TSRkUx4D0eZslqWI/QQ/vG7vd2doipdJoCZRouMVkxIE7srECECQ/IkCxifP3v/KiaQtrkkVRjCH0wvKtToJbJY3sJGXc25UhAWUlDu4NpJRnqe8Z7yRO1+gCdxm3wMh7bjH34iNpThR5gJ8Cv8E7DXQe10nFxdxjGmgZ81fFb1QT9Kua/zVWt6QP8Pvm+MfyhrbPuZVYiVeiFrTi+dn40LTSfqYbAgkYwvgKBVX3Bw729e/RBN+1WF4vix2ilWl+fF8jM9QTzi+Bv/5nBLSD7+viE0yBqr1FcqQtDHkiJCv3PcVPK+eK8dH4Rxg2Lpp8Zpb2qL68YcC31ldoW1r8Hl+fKa81TGisikw02sdP2OLjYtZh7NOtuD0o6/VhJNJYO/GRa4A0Xhzx2SgXIp+X/y4wOkD4xxEZTCPtm4m5pHXvJoEqxIuJKs18gb8KXy5uzbL/0UnTY6g0KW8ge6PDihgk5V2NeFZ+lwhJgDPKbw30Hvx731a3/nUQM+avyp6IY5kjF1jV2t5Q/4Mv2+OfyjrHNMzuJZYiReG1vQ0XW21r0bzQ49JfORysxxXWJDl7R/qsR0P+bwqba8vTiV/2/EcyrP1O/JfUwP42muqQdi40O823lCvNXbP4yxh5wY/WUVfibsSz3G8Dfks+5s1PSs5PR1r/qzpeT5NPhsbEet3NbBxYWIvxT8/kG4YVNx3DLDlxFUORKA4g8AqE+WTP8/DaxHgFxOvQiger8ktjgGPsimQWoiJa0PgAK0V14f09vgOPFJewOse+q6kCQlNLQgzuKuco05W719PbGRjgve9qZmWwjvSKxdxpfF43pq/7fRCO8kYy8ZFCYPSD8pY+Zob13qTq3w+5Kd1fsyha+wb4uWDv0O8kLmn/u/QP2W+L++UlL5YaMrWxNQgl4a8OWxJ/rTzIf7k+PLCcCtWMJa2+pvOXzvNUAf579KGF/S3o5oWDp+Av1T+3YoRvB7wWaxTpK10f7Oml8cOylIz1po/a3o1MlSP+fnv8bd/R/hFDu39EZ5e/B6J2hdgsnHhdcjPok9qA1qTDAaiYqKzCKyi2Jnm8zTnoOl5egbupfCsSWqx/Mv17b+CckYiaQM+5d1k35pids0Yj+ktu33WzKtegxjJFduQhJN3RpGeXuzK2OT9OdU4QXrW/OXowcs5k/JKWdzfUp6amBReby1vSN/wO+B4XSEN/pm7Kz9hF3Wj5SNrenG83WpfQ/2r/nwh+iKXL7sG65sW7prIP4FmAXOAzzW+iLqsin+CPw2fIZ7a8Ir8hLRqvoMMBv7m5txXhgv725FNC+frAlupF6XWYKBpTMucNf5mTc86BlrzZ03PVN6WhkLL2DBObbi2clfI+t0gIa/83hQfTPE46V43ACSuuRmgj8VAqW+NBCEhcBWKiqTAIlG5xOodf06yS/Ha35e/awI5JNhZdjFf67sGTORN6D6pn/rxlNfpaoN9DWwA/vGiBz5YvSCut7s2Z/qY9KGcj+O4tL/VjnvJ4/17auJoiwukl14M4Lha/qKFkbQ58FYbzyTeNHlKdkQ5tstbmm/DeYP41+QLMJ+uW2t6sd9ste8GfUtsvsPf4D9tDQvf6Ij9U+pfaWwIvQAW5ny/Vv84b7IhKzE61yypOWt9PXX9iuNgk0JMk7LkXowJNHW/jP2olnepd2vatTwo445uWoQNos14VmQSvrPYS+rfwt+s6dXKUTvOmj9rerVy1I2Ld1GMo/byyy+lgfDHX3/qj05FOGLjYvGnOrt84/EJBUGSyQUidLjU1lxQMCS6QlKMwO35Fclc/PyYLGB8QTJ03dj7d0CUigSQO0iAcC6nE8/j69NE3oBmUi+N40AmyusLYfUunpXOq+gIfDvslnBbRbMRGwFNaHClGimAJ7cISfl3IF+2GRiMTRRje/In4wrEMqcjkDklb6h7jJvpxkN43fLdVt6FbiRfgIPm8xbxD2jk/CHASgp/1vQiHW23b7OeIx52tOkZc4HNyn5W5R9AM9eQrdFliL0gn4LOcGx9fGmoO2C+Gv7lGMRvOv8s7xObcmciNj+xHNB8/QJLDue3rpt+pSU3RqO9Jp6W55D6qfj7hKaFr3l9HXOkHqz9zZpebN8Aj6lckfAja/6s6cXyVmA2IeuX8rjIH//+GH/5/b9zU+Kn3/+JHimZxvxcOy8bF6Y2S9nyM46nQIWJ1QXC6XfGhdC3ezf28Gbt592SYrCEYqFcgKSMiY6uLJJgngregvGaHDhnJe9At/IaoeeU/JuPA1960UZ5U/6x83FYDOcK4J35kDgEnp6PTN1vy/y3ez8OvkE4f6bwHseXKcb09/EmaH654i+IMckif0f+knM6/cC8KXkXPT39NpR/GN3OsCafhnm32iPkz/A7xJla/cTzYyx6PH/FoYAVLYZ7HVvT83TN7Ct9j3+3P7sPuHP+0Y8Yr7ogXhWweXP1Tj929xvGqK/bqNZCpWZz4L9DFPtu470bxEu3VzymugE30SK470B/LjZ3tbH5xUdI8/EYxr4LYj7os2CTWT6DeDrTimMP+nbFedOmhZPN/WpNN94n7MV54jblyfOwMulnB3+DemKr/0b23da4wEfAbeLLvvJW4DbS0XKNtuvij+DdF9H3xM+ZrqIl5wrpKjs9tB0hfFRksWdzTMtg4wRaGUHCQDQvRp5NAN/VdQWBXFzkisU4wNUmJoXPIPHHL+GKk1knC10wRDg2xVcQ7LJ3GF48gx5TdBX5gD/r85T3rup3hX1VOtvsBYuqGoztwEMcjALdqPFgGLuuF8V2Cu+Iv74LFxFBjPFzZRcDO/J3z9gT4lBKXuV6uC4hb/YukKW8Cn9WmDKLfzXyCj0W/caaXqDDzfYN6FnZ413prMBRvFAW+PAx5fWZbU46ncH8aTpTXVTE3tO2EOcDfub6aj5+dAMbY3TMT6CDbGxesHzvgwX2LF9Abzp+ZDxdeIxzX9u5FtyhXjV5G+0w6e1orDz10yJ30d+Cl9iinmKs1NBDu4bxX9N93u7vJW9eFtSNNvbP8dceX9IZNSpkc8HtyEjstmDjQtMvj5UxOOto/kO/21dK1tN2PwyshzUuAt60ebEwSAcmHFfYjhkUpNq8YADgM80DXLNzcUl5M7hvta+1rQAv+k6YI7ECc6m7KnwR4XYN1O5AwJjhrisVAdMdyZKud+QP9CD5ALy0+Xfoh3FxVqBnJm/GH6Ssa/4GPBfkKdFXduDEOnO7MbrxVqLlzlvTC+bcbN+AXhKD32HcShyV4sp0179mtxPM72Ne/FkVp2Z7uUctahby5yxE8afnY1m977XJ7GK9tjsvpO92Y8S7C3I+cBV/K2MulNV/1+Ij5kqv8+RnsDMhp689zpVlb9tdaE1vkXl748LRsubPmt4ir0WOVx7ngGaFb2ykmxaOHzYuLGzxrWnUCO+2LPbjANsC3da1+6s4xMB63EJezptI7HJRkboLIse4bnXFnYMwQWa7vVDwaImpxgaGYyiv3qSbi8ngDejaW+vFWNvEECbCC+AllFXZljptY/W7mQBfKf6l74pGoUb7tT27Ws8aDbnNeQt/oS7c9yp6af99bjMfgm3ruUI2oGUib0BTk3PtsR3in9cZFu+v7dS3tsWOw5U1PYlVTxu2Ac93mVP+saM91trx7Ou24Mg91tAHPjZtvw8fUyjofaIT1kJum7jHXuH6lA41/tzjuf7RlNR1Bx33jyIghjfK/PWsK/shaNwMr8dHVsp2BX8rLz59fA8/U/HA6aobe4fhUF8ulsz4a499MlaZ/a3heY2/eQxY05vo2jQuJp1Z82dNz+vR6POn3/8ef+1/KO+08I0L9/LO5f0XIa7YuFiZJ4zsF9rjDb9TgW9otOLCmzIR18QAMUAMEAPEADFADBADxAAxsB8G9J0YuebFfrzQzt9AtzTyNzAyGx3sVBIDxAAxQAwQA8QAMUAMEAPEgDEGtHdg/NB/NpW6N9b9t1vHfzuBCRgGDWKAGCAGiAFigBggBogBYoAYIAZMMPDn+Ov8zgvXtEg/LsIbxlx7b8AAlbdBeQx2JsGOGCQGiQFigBggBogBYoAYIAaIgffFgNt58U/yF0XeVy5i8kK2ozEuZAw2QtgIIQaIAWKAGCAGiAFigBggBogBYoAYIAYQA2xcsHFBDBADxAAxQAwQA8QAMUAMEAPEADFADBADl8XAZRljhwk7TNQH9UEMEAPEADFADBADxAAxQAwQA8QAMfAdMcDGBbtqxAAxQAwQA8QAMUAMEAPEADFADBADxAAxcFkMXJax79hFoszsnhIDxAAxQAwQA8QAMUAMEAPEADFADBADiAE2LthVIwaIAWKAGCAGiAFigBggBogBYoAYIAaIgcti4LKMscOEHSbqg/ogBogBYoAYIAaIAWKAGCAGiAFigBj4jhhg44JdNWKAGCAGiAFigBggBogBYoAYIAaIAWKAGLgsBi7L2HfsIlFmdk+JAWKAGCAGiAFigBggBogBYoAYIAaIAcQAGxfsqhEDxAAxQAwQA8QAMUAMEAPEADFADBADxMBlMXBZxthhwg4T9UF9EAPEADFADBADxAAxQAwQA8QAMUAMfEcMsHHBrhoxQAwcjYHb2A2P8fF4/u/vR8/P+d4L88TLe9mL/kV7EQPEADFADDRg4N7PNeHj0Y/3qzUlrs7fS1+3ezf2wyB0+XG1dgOorgYi8vMdO20fLvNtvN3u473rxr4fxkEs7qdFfn//EPm5EGVB05J7iBfipQUvVx6LWPbN2+rPoRtvB9c+Lie5Qnh4NZqfvA7j0Hfj/XZlXZ/I25TH+6fewjz+eIzD0I/d/dZgy9voFiRd349DZAtHbxj77j7ezrLHd5M364P3sQdfKS3C22PCR97suXpj4Or8fX2N935pUmg55UNwc2Jgzzo++WKh+t0wECY7JQCxcfEhjRtp62Hszio23yYGY2H3Icm3AcvEy+fkQ8SyVlxmjx2aA+p4Hfp7wwJ8j7x+Mf+ABY6Sx2FRO4z9/ZaPBbcuaBrlaR5uj+8mbyFvxotHNi6q4jfgqKSzPeJIgeZb8afHiA+pnQqGKjhoFRhJI5+UqB/qZ8KALL70oPM4tGjdMzZgQfwhwbQBx9LWbFyU8wjxstzBI17KeNkzdm2ljVjONilggfvMCcfFykY+T81NF4unsMBJ5PLAtkOXaV40Ni4mTB25M+e7yZur2VVblRbhjb72eIzHxYGt8a7hesBRSWcNdHP2ajl3af4CDA0fvRvuBOO3AIVjGxZDtOV7F7Su+HKPh/Rj33Xj3W0jvX2Nt048q3ZqcWiJLwyyH5mEs7HrYoV2lldLu6+lRbywcbEWO+99Hdy9PXAxCnnHPdoQPhZyu8N7itxi+bw4frF46hY406MbPo+HTYnbeO/6YBdFpiHpFsOOnrPBVBeE9L6mR0z74JGUbDPEMuZ/N3mTulvy1OAe6ZmbU6VF+HKd86PD7JaU471j5nuvA9bqXsbAM2PxWv6brmsazEU0HZ0YOBgDUECycfEh+JNJJlOwHoy16yZ8LOzOWyCdlS+Jl+tic09MSLsfuaDBedM7/W74TPWBjRXEg+T3jeJpcHd++4L1KvZI+MSHy7vUav3/v/tFPt7DxgX6awIfrHc21LdvGgPX2ZwAokMRA1fGwJIMH2O6gHw3G3IhyjvoLZglXoiXFrx8yFjYmnzgghzmLSy6YIF2II9Q8L5v0W6+o6bFdqDDY3zmc+VdMDg11sEvCj70hfltewPrGFteuW7+frwt+Hs8zorDh+HusImWTlLKod3WQ/dLCvP2qnuAd4kAABP4SURBVMdru51/8dN254ZF4FF3Byjv0/ZF+56AxRMSd2tABcyetuMCfS97x7uqcErQe729Xj737d++ntdbgp5m3438hTHK8Zd/sz7yJmUr/50qeJDmdntY+541fwl6xEvwk2fvihdr/H0CPcT8kU3rtpyDfNYvup6PS0Q/2+d/HUOL3dMxnK8cQ+U7JlL+cSJeZD6yqEmh3rzgAuZD5Z0bMt6GYIcS7hDT9T50AG5Bjko8SRsnf9YUZY79uKSzl+zKXDfxGJZ7xG3+FaapXljiAZyL4o0Rf0rMmus1ZU1Uried3CXeFhlDvc5zR/IuWNJ/TtX/ilT8mFq+Nl/oGo7bhejSpNCUA47wBOftLp8HU5T+WrDNwcE1N5oXcWjsw4ID5R1r7WsI7DwGNVxe9FhbEbmXP6PvZIOfkkhiu8b0QE7ZvPR/+4JAtVNML57zpZuV/H0VYlRaJ8hbmEjy31PJG2mm5/4aHd/LHCl61rix5i+mR7woebKySLweXqzx9wH0oG448pll9LWaOqm1LpMLiyU2hXhO/doG8pe+PqTnvh8V/xrwJ+NzNsdV0pT0KG+mDpR3qDdiY9a5WNiD/5Zwh5iu8blkfaPWR5XYUa9F3mrWXXXxIKDr67z5s6Szl0yz7p827OQ74Tytya9Ce7/iQ9LnjPibdIq0pvy7up50ciO9lhiYzf1BYydFN9/w2YK16murB2YCQCON0KHh+wtMHnD+0zcpJEiTgEvxg8DNGlB14BTdwnGQL3z2jfJOzuHta6n3D6EFC7TT9ISBMus70keThVNAr5PPgyZ8wsWCpPwBvXvGJ9fwd8fYoQf0VKJF3vRrUzLX0dxuj4y+VvkRyrydv4Ae8SKaURI774oXa/y9Pz2I+8k4uoecGOuyvvuKDcBroS679+Jl076+S35qeMZYYBNP99BjHU3QXTK/1dGKFjSb6dXOWz/uOvIiztc3tQQepb7Duj+bRwUN5wtDPw7hi1aHfuzci1mzdOrt0NL4AJsVYxHqNR0/ApmjGKD5viIf1HMyF+Lf7uW2qVih82jE32QvpNVvqiedDpBeSi7tuC6ro4l2066FY4U434KvFWMVIOztGODQ7lcUXgCbtlwH21Bur7cv+4AA11YC28uz5VpPY80nzEt5AaShfdfo98OvgaTh/eBwmTFQpoNf7R1+pOcD4vT78zcRk5QOsD430tPHvOhCokvFEKT35G8Y+04WDsGL0Jreqi+ThLhLU21X5G+7vELn1TzkrrHmD+kRLznda+dQf9fDi8bzdz4m48ORL+V0OpdzV8YmGVMzBS3ksmmh8txV4X49a6kLbuNzq7KrC1PxWY5fybNJnAv5aP0udb1lV43UmV+wVdruUD1cSV7kpR5raOMF04G+oe4v4Rjjs89v6qdrYIC/ID+LHxkeB1nyOF300eK/L15lHKn1fbjmeXNrau642jFshvSv1w4E56p3uMBcJZtK/Wv2tawn3VxS3gCLFT4Ou2SmX5G6T79qOONJqcWr9VYx/zxP3Vip3IP+DpzAOWe9AjYYR4Iuk1wbFSgSbkJ/lLfBvgkd1oG5bIs3pAOJ4IMbF+kYEAR91XdxzPaFGdJzMUqnGYyrts+GODZhGOfVeXv5kox7tcXAZj+x5g/p5XNGMJZ4ie7QXA8vjPtQd4DPthehQKvVl6FeqZwb+E0V9DLmubvK4tnzBI8397PgiXMoo6RdyXMV3X1xCYuF6tzxhb/kEi7O3Pfie5f2lQtts8x1LXklZlYssh1+hK9E9Ys4V26KBDlLsykcOxrjAX9JrNaOWzABWKmKI8G1cA3qBWrn4IWVcC4pT26uVJwLrpniTKAX83rSzSnxjHoAHWtxD7CaW48HclTE8OLcGj/lY5qSdz4WKKkmgUnhZfALCzAJxty59JbzHWSnvKdsb5OYeee/JaYPxS0EDwxYoW+BfiGRpII70ismdqCpBWWkZ85fJkCDfTLjQEdbksxkF2t5reOeNX9Ij3hptRfqb7t/tM7P8ej/eX3IGqe1PmqZRx0L9YoWaxXeIT4nYj6MqaQLOUiZdz6/oWifaeTo73Bugz4AH8GCtr8Hu5bPki+c93LySsysa1wsdlAwD36knAf9uPjs7sDfx/tN7up0uNN206zjV/V34CONc6hzUjdAQObUzZ70HKvex5XDFZxDG4A8tXVbhl5et5h/czF9FV+TDSWe2+IrzJmyrccJ2LhtnryOMrjwcy+fTYNt7miD4Lnujs6bVDJ2OQNwBF20JciscKhFYe06oLztOtui7w+7VuL9YxsXga/GAU4GZc1/0fe3L8yQHsaZIC7JZFabANm4WGKC1F8yaaI9yn5AvKAPof62+0fgAx8Wc1F3B8sa1AtZW+2hd5i/sjCt8GFZf5X9t1Xn0t8red5Dd7U0QcdaPsvLD7qExoVb0D53XBz+OEFO9k+UV2Be9VGQGRfNa+ML1IJNO9XzeKrjR/qYjlnkb4XMQqfFmxMeb7lras/V1m05ep4f9RPzr3096ewr7dMWAyGeFGvxBllUXVhgsYYwGOsVGCFYtilJbq9a9XuzMiAA4KThwq2IUtkFfilv8BKbgr5CDEn7BNuz6gJkAGxre1jTC+U3/g7JoBhUAt2Z8SL9R09as21Bv6nkhfSygXySoTQez6uFhNfFCv620wvtImNVo38p+rDnL+S39fu+9iBezrZH6/wcP8dHH4cSnxDvk428HfW5Jn8XYyrGg7L/tsq3NZ62zrdhPOi3/cadjiP9rnw2LyTwp9OnvKgXgTdYgwg9gZ1TdZAYX2UP9KPcnXvkt3UefXx+gYu8rfLxYhxR+MpdU3suZcPQJjl64Vj4jrrJ+uXqOQQmG9dd0q41dmsdvwMWFSCAwsOX7V2gcQGdJREQvMH7fuynF37KBYEwagmkng40Z6Tckm6F/iCANV472ULwLgsZz+fHyRvo1MtpZQ9reqG/GH+HQvZDGxfZQP7SZz5YWicGa3oBpiGGrYkJe/MX8tv63Zq/BnrEy7KbZY5FDfqD+Cjy60yrFQscX1+4yVxvtaht1b/koTI2Scyo9VUD/lbhbAXPq+Zp1WUwHmrBfewL9YKsFymvEhcD+1TqSOo4WbuArQ3jqPS1o+0LcwexAeQNzlXqdfujIoGegd/MOTVmKdjI0cvK2BD/Vs+xNgYib62NC/vdc4reY91WDAJFygW8/7sRpADwAEwxg0qwkYpe5vbBxCneL3JmI0gZSos/OVZdLC9zVhUklFexYQXuPBas7WFNz/O506fH9bQFtITdnXgIf34pmazd/KDflH9LHy7s4HjJ5H1afzFjAz1r/qrohXhfm2Q8HWt5PV2rT2v+GugRL0q8bdDfKjxb4eab0wHdN9YZZrFfxqa62Aw5Sl0ENOBvlRyS57P0VsDu2l8yaNYH6nqugZvpFOQp0ftUeWU9n6vH5DjLBsNedEv2nM5LP8PGWzkGVOAJ4l+qdgzo5K6pPafGrGAeJ3+OXlZ/6JPb62eFt9U3w5C3mngha/HrNi6yBtEUWDhm4HjSSZ4g8Mp/JS0PsFdgiccXeLSUmfIqhfSB+re05Qm0JHZPChI7/CqB99dn87McLEvj8fz2xGBNL8S7LADWFNp78xfy2/rdmj+kR7ycbY/W+Tm+5iYHFIS1xbR5Tmr1teBXLtTFXDvNGn0tY7bG053xedgi/ikH4Ei1B+VdsNOoC7+2UG9q+pu5+c9sfVLyZ4P1xGrZvwJfn2OU9D9saDTNBbpl46L6PR8TZqQN2mpKGS/KtRVioGZ8EwZK+H+eb3TaOqL5haqF4wmAT4rzNCNHeoJ/MUybQU0U7nmbAl2lM4Z6/m7yhvJ/4+/v1rgAfpN3GrCQLTdkZFDW7gIivVxhsIa/HL11XXgpz5qYZC2vdR6w5g/pES+t9kL95fBc5x+t83N8sZaAOkGLccfpEDBQXPgitlKF7FKDPcay/7bKujWets7XMP7gpoXD2b66Lsj+6fKKWnzaBbuigZGLv8U4AfOvXE9sqadh/lftoh1bMwfQqZQtd03tuXndWMB2jl5WXoyRWfuvnmN9DGyLFyhLKt4XcZzVV8EOOxPXGxiQoCvBGQkpjOQSqzf2nGQX5bqfh+qmd164Luja+YqK1GV1fFPetG4iu27Q84fSaisi99Kf9KFcRx3Hpf2tdtxLHu/fU5GgLfSRXjqY4rha/uwTjYhfjS9SesZslGO7vNa4seYP6aXtRrzoOR31dz28WOPv/ehBnD+jTpH5E+JtoWaC+kaLzbU+ucVmW+Pplrkz156wiA8f67RvEn1zecE38jsrUo2NbD0h/VD5GxaZtQtuhY6eJzK2nWlIX3vWgmY8gW4Lccfzk7um9lytHnP0PD/qJ+bfrP1XzyHtkonDCn9Nuac23ivzrMdchMvowP6LTBC8EpyREgQQhm7s+mcAkYDwxhi6bux9V3RubBwoN+XdH1MRPg60785zexyf+46L4C5OqrCGoJtrFAr/fflm9WIqkWQgeRrzJ+NKFHxB5tp4JpNMrhGUxrGtvOl5Inkr8W7LH/Ey57CVP4Nnaw97vKzF2WdcF+D7jDoF/BrjU3rxu7xPbMpPidj8tFFAcyjHylvXjXfgK4U7pJ3OJanrdzh+StPia4R64XHgzp23kxcxU2yGV+FQ4Mik7hf0vmLbnoVzwNgwjINfX63MTXMMX1NL5a6pPZeNW8IGOXpZfGB8t68nHY8Sz22NC7y5ntsRh3KY+0xWh8IOM2DqL9i+CDVyaCzElEUSzPNsbJzi6MBHOVmnbPLd5E3p4bsdhyRxZkELQfv5c8P32xJMbvceEtjzbkMK72EAfPlnfx9vguaXK4bm3VLPMcmgvyN/yTld3IR5U/IuenriN5R/GN3OsCZsw7xb7RHyZ/DdlL9QX8TLx+HlyBrkanOBrzQWnTvJAnnHLUj6bpTx3sXmZSdrITa/eAxpPh7D2HdBzP+SP+15YDy11KPpIt7FvmEc+n7s7k5Xt/EW8Sp19rRFuZFkEOM9H28pr1zoOZ3VYq1Sb9V1v7dvN97vt8m+YR1wm+qgYXzWVC/71i62vY0sP0E2gbdVu0eFPiEOVtojd03tuVpd5uhl9Yv1i3096XQo8dyeQ8L15VBRi5+ynn7qWYAmq3jDcQD6SnBqvAGInoU7BnQEi0uSnVwUaTT3OEZ52xZke9jgTWjGhZ1MCom/D2tmyMCY4MX5WNeLBJvyb/TNvuuUpocyR1bWHfm7Z+IfxKGUvMr1cJ0i63QXI0fPUl6Fv80+Y8kf8YINsk/Eyx4YfA+aUDTWFtGb/bOkG/Q5WDSJO6zz8WxsXua698ECTKM1H8vFv4XmtNDbHE8Dehv0uyqPJ+N9ox1m3R1X776nvGF+asBaDTaq6/419j3OtmET5fk9wXNlDIju8M+YTeU1cTyMj+D3gQ1rz4U0wXZi7ho+Q1oTVlBfV2xcYOOjQmZVTrsYquNupj//cdziEkARAK0mIPgxQEffbg0FgXVH1fNR+gQ+KW8BkMfhsGS3E86vKgBqk4WFPOquCh/k3K6B2h0IcSAvyT51gEsy7MhfEre55FjgF+OT16P8LMQLM3l3ygNm/BEvDn8fj5eCvyR98J2vg/pAr2POkxv9bm5SBAV8VWwWNrp12u48Gffc3243RtsutM3+IXjcovNSLkvpUb/rX2cDoOkewznwJt17yvumjYuDbZvyA83m2QW59K0g5gF2g9gSnQsXzLn6q/ZcSNOSv0lu9OGsnnI8Sx1Gf0s8r2xsKTucI/2/dt/hJoGd6sdIxnme+Y/jFowAikJhnmY8+InGhKEkCEJwZmkb6oXyHoeto2y60zxaMtACBxw7snHh5Fa2LcI2YulzyWZhIpBrtAe3RbahgNVoyG3OW/jT7F5FLx1Pbvdu7IPnRBf7VsRHE3nT/KUKl+rjJvwRL17fH48Xzcc++BjG/Ap/P0EXfqu6fJbdNRYg7jfzdRvvXT/FviXeuZ2zr8dHmuk9Y9hm/1g5r/dP94k2DRsyue8p+7tHQe5j1z/1NQSPTzr9DdPjJO5xnoZcaSDr+8orF3rOJindr8yNTXW/84Vu7PthsiP4g1vIn2hbiWv4G+Rr1F90bc4ngnPhOi5Xf9WeC2la8jf5WKJ+0fwvx7M2fj4m8ZxYD89j85j2MRRx6OP98fEFcPeUIS+AcgEXoZXGp+6ILWKAGCAGiAFigBggBogBYoAYIAaIAWJgMwY2E2Ajg40MYoAYIAaIAWKAGCAGiAFigBggBogBYoAY2AsDbFyw+0UMEAPEADFADBADxAAxQAwQA8QAMUAMEAOXxcBlGdurU0O67AISA8QAMUAMEAPEADFADBADxAAxQAwQA++DATYu2FUjBogBYoAYIAaIAWKAGCAGiAFigBggBoiBy2Lgsoyx+/U+3S/airYiBogBYoAYIAaIAWKAGCAGiAFigBjYCwNsXLCrRgwQA8QAMUAMEAPEADFADBADxAAxQAwQA5fFwGUZ26tTQ7rsAhIDxAAxQAwQA8QAMUAMEAPEADFADBAD74MBNi7YVSMGiAFigBggBogBYoAYIAaIAWKAGCAGiIHLYuCyjLH79T7dL9qKtiIGiAFigBg4FwPjl+0/2vNce1L/1D8xQAwQA8QAYoCNC3bViAFigBggBogBYuDNMWDbtmCxiMUi9UF9EAPEADFADJyNgTcvVAigswHE+YlBYoAYIAaIgfMxwMbF+TagH9AGxAAxQAwQA/thgI0L3mUjBogBYoAYIAaIgTfHABsXLJb3K5apW+qWGCAGiIHzMfDmhcr5CiSIaQNigBggBogBYuBsDLBxQQyejUHOTwwSA8QAMbAbBv4PwKVDg0bBtTQAAAAASUVORK5CYII=;" vertex="1" parent="1">
          <mxGeometry x="350" y="290" width="1070" height="84" as="geometry" />
        </mxCell>
        <mxCell id="6wUznwKkk6pUSenvLdBu-2" value="" style="endArrow=classic;html=1;rounded=0;" edge="1" parent="1">
          <mxGeometry width="50" height="50" relative="1" as="geometry">
            <mxPoint x="320" y="550" as="sourcePoint" />
            <mxPoint x="360" y="380" as="targetPoint" />
          </mxGeometry>
        </mxCell>
        <mxCell id="6wUznwKkk6pUSenvLdBu-3" value="&lt;font style=&quot;font-size: 24px;&quot;&gt;文件类型&lt;/font&gt;" style="text;html=1;align=center;verticalAlign=middle;resizable=0;points=[];autosize=1;strokeColor=none;fillColor=none;" vertex="1" parent="1">
          <mxGeometry x="260" y="553" width="120" height="40" as="geometry" />
        </mxCell>
        <mxCell id="6wUznwKkk6pUSenvLdBu-6" style="edgeStyle=orthogonalEdgeStyle;rounded=0;orthogonalLoop=1;jettySize=auto;html=1;exitX=0.1;exitY=0.5;exitDx=0;exitDy=0;exitPerimeter=0;" edge="1" parent="1" source="6wUznwKkk6pUSenvLdBu-4" target="6wUznwKkk6pUSenvLdBu-7">
          <mxGeometry relative="1" as="geometry">
            <mxPoint x="420" y="660" as="targetPoint" />
            <Array as="points">
              <mxPoint x="405" y="588" />
            </Array>
          </mxGeometry>
        </mxCell>
        <mxCell id="6wUznwKkk6pUSenvLdBu-4" value="" style="shape=curlyBracket;whiteSpace=wrap;html=1;rounded=1;labelPosition=left;verticalLabelPosition=middle;align=right;verticalAlign=middle;rotation=-90;" vertex="1" parent="1">
          <mxGeometry x="387.5" y="382.5" width="35" height="50" as="geometry" />
        </mxCell>
        <mxCell id="6wUznwKkk6pUSenvLdBu-7" value="&lt;font style=&quot;font-size: 24px;&quot;&gt;文件拥有者&lt;/font&gt;&lt;div&gt;&lt;font style=&quot;font-size: 24px;&quot;&gt;的权限&lt;/font&gt;&lt;/div&gt;" style="text;html=1;align=center;verticalAlign=middle;resizable=0;points=[];autosize=1;strokeColor=none;fillColor=none;" vertex="1" parent="1">
          <mxGeometry x="510" y="553" width="140" height="70" as="geometry" />
        </mxCell>
        <mxCell id="6wUznwKkk6pUSenvLdBu-10" style="edgeStyle=orthogonalEdgeStyle;rounded=0;orthogonalLoop=1;jettySize=auto;html=1;exitX=0.1;exitY=0.5;exitDx=0;exitDy=0;exitPerimeter=0;entryX=0.014;entryY=0.543;entryDx=0;entryDy=0;entryPerimeter=0;" edge="1" parent="1" source="6wUznwKkk6pUSenvLdBu-9" target="6wUznwKkk6pUSenvLdBu-11">
          <mxGeometry relative="1" as="geometry">
            <mxPoint x="630" y="670" as="targetPoint" />
            <Array as="points">
              <mxPoint x="458" y="508" />
            </Array>
          </mxGeometry>
        </mxCell>
        <mxCell id="6wUznwKkk6pUSenvLdBu-9" value="" style="shape=curlyBracket;whiteSpace=wrap;html=1;rounded=1;labelPosition=left;verticalLabelPosition=middle;align=right;verticalAlign=middle;rotation=-90;size=0.5;" vertex="1" parent="1">
          <mxGeometry x="440" y="382.5" width="35" height="50" as="geometry" />
        </mxCell>
        <mxCell id="6wUznwKkk6pUSenvLdBu-11" value="&lt;font style=&quot;font-size: 24px;&quot;&gt;文件所属组&lt;/font&gt;&lt;div&gt;&lt;font style=&quot;font-size: 24px;&quot;&gt;的权限&lt;/font&gt;&lt;/div&gt;" style="text;html=1;align=center;verticalAlign=middle;resizable=0;points=[];autosize=1;strokeColor=none;fillColor=none;" vertex="1" parent="1">
          <mxGeometry x="570" y="470" width="140" height="70" as="geometry" />
        </mxCell>
        <mxCell id="6wUznwKkk6pUSenvLdBu-12" value="" style="shape=curlyBracket;whiteSpace=wrap;html=1;rounded=1;labelPosition=left;verticalLabelPosition=middle;align=right;verticalAlign=middle;rotation=-90;size=0.5;" vertex="1" parent="1">
          <mxGeometry x="510" y="382.5" width="35" height="50" as="geometry" />
        </mxCell>
        <mxCell id="6wUznwKkk6pUSenvLdBu-14" value="&lt;font style=&quot;font-size: 24px;&quot;&gt;其他用户&lt;/font&gt;&lt;div&gt;&lt;font style=&quot;font-size: 24px;&quot;&gt;的权限&lt;/font&gt;&lt;/div&gt;" style="text;html=1;align=center;verticalAlign=middle;resizable=0;points=[];autosize=1;strokeColor=none;fillColor=none;" vertex="1" parent="1">
          <mxGeometry x="630" y="382.5" width="120" height="70" as="geometry" />
        </mxCell>
        <mxCell id="6wUznwKkk6pUSenvLdBu-16" value="" style="edgeStyle=orthogonalEdgeStyle;rounded=0;orthogonalLoop=1;jettySize=auto;html=1;" edge="1" parent="1" source="6wUznwKkk6pUSenvLdBu-15" target="6wUznwKkk6pUSenvLdBu-1">
          <mxGeometry relative="1" as="geometry">
            <Array as="points">
              <mxPoint x="580" y="270" />
              <mxPoint x="580" y="270" />
            </Array>
          </mxGeometry>
        </mxCell>
        <mxCell id="6wUznwKkk6pUSenvLdBu-15" value="&lt;font style=&quot;font-size: 24px;&quot;&gt;连接数&lt;/font&gt;" style="text;html=1;align=center;verticalAlign=middle;resizable=0;points=[];autosize=1;strokeColor=none;fillColor=none;" vertex="1" parent="1">
          <mxGeometry x="530" y="180" width="100" height="40" as="geometry" />
        </mxCell>
        <mxCell id="6wUznwKkk6pUSenvLdBu-18" value="&lt;font style=&quot;font-size: 24px;&quot;&gt;所属用户&lt;/font&gt;" style="text;html=1;align=center;verticalAlign=middle;resizable=0;points=[];autosize=1;strokeColor=none;fillColor=none;" vertex="1" parent="1">
          <mxGeometry x="630" y="180" width="120" height="40" as="geometry" />
        </mxCell>
        <mxCell id="6wUznwKkk6pUSenvLdBu-19" style="edgeStyle=orthogonalEdgeStyle;rounded=0;orthogonalLoop=1;jettySize=auto;html=1;entryX=0.317;entryY=-0.005;entryDx=0;entryDy=0;entryPerimeter=0;" edge="1" parent="1" source="6wUznwKkk6pUSenvLdBu-18" target="6wUznwKkk6pUSenvLdBu-1">
          <mxGeometry relative="1" as="geometry" />
        </mxCell>
        <mxCell id="6wUznwKkk6pUSenvLdBu-20" value="&lt;font style=&quot;font-size: 24px;&quot;&gt;所属用户组&lt;/font&gt;" style="text;html=1;align=center;verticalAlign=middle;resizable=0;points=[];autosize=1;strokeColor=none;fillColor=none;" vertex="1" parent="1">
          <mxGeometry x="750" y="180" width="140" height="40" as="geometry" />
        </mxCell>
        <mxCell id="6wUznwKkk6pUSenvLdBu-21" style="edgeStyle=orthogonalEdgeStyle;rounded=0;orthogonalLoop=1;jettySize=auto;html=1;entryX=0.415;entryY=0.024;entryDx=0;entryDy=0;entryPerimeter=0;" edge="1" parent="1" source="6wUznwKkk6pUSenvLdBu-20" target="6wUznwKkk6pUSenvLdBu-1">
          <mxGeometry relative="1" as="geometry" />
        </mxCell>
        <mxCell id="6wUznwKkk6pUSenvLdBu-22" value="&lt;font style=&quot;font-size: 24px;&quot;&gt;文件大小&lt;/font&gt;" style="text;html=1;align=center;verticalAlign=middle;resizable=0;points=[];autosize=1;strokeColor=none;fillColor=none;" vertex="1" parent="1">
          <mxGeometry x="890" y="180" width="120" height="40" as="geometry" />
        </mxCell>
        <mxCell id="6wUznwKkk6pUSenvLdBu-23" style="edgeStyle=orthogonalEdgeStyle;rounded=0;orthogonalLoop=1;jettySize=auto;html=1;entryX=0.561;entryY=-0.014;entryDx=0;entryDy=0;entryPerimeter=0;" edge="1" parent="1" source="6wUznwKkk6pUSenvLdBu-22" target="6wUznwKkk6pUSenvLdBu-1">
          <mxGeometry relative="1" as="geometry" />
        </mxCell>
        <mxCell id="6wUznwKkk6pUSenvLdBu-24" value="&lt;font style=&quot;font-size: 24px;&quot;&gt;文件最新&lt;/font&gt;&lt;div&gt;&lt;font style=&quot;font-size: 24px;&quot;&gt;修改日期&lt;/font&gt;&lt;/div&gt;" style="text;html=1;align=center;verticalAlign=middle;resizable=0;points=[];autosize=1;strokeColor=none;fillColor=none;" vertex="1" parent="1">
          <mxGeometry x="1060" y="136.25" width="120" height="70" as="geometry" />
        </mxCell>
        <mxCell id="6wUznwKkk6pUSenvLdBu-29" value="" style="shape=curlyBracket;whiteSpace=wrap;html=1;rounded=1;labelPosition=left;verticalLabelPosition=middle;align=right;verticalAlign=middle;rotation=90;size=0.5;" vertex="1" parent="1">
          <mxGeometry x="1101.25" y="136.25" width="37.5" height="235" as="geometry" />
        </mxCell>
        <mxCell id="6wUznwKkk6pUSenvLdBu-30" style="edgeStyle=orthogonalEdgeStyle;rounded=0;orthogonalLoop=1;jettySize=auto;html=1;entryX=0.1;entryY=0.5;entryDx=0;entryDy=0;entryPerimeter=0;" edge="1" parent="1" source="6wUznwKkk6pUSenvLdBu-24" target="6wUznwKkk6pUSenvLdBu-29">
          <mxGeometry relative="1" as="geometry" />
        </mxCell>
        <mxCell id="6wUznwKkk6pUSenvLdBu-31" value="&lt;font style=&quot;font-size: 24px;&quot;&gt;文件名&lt;/font&gt;" style="text;html=1;align=center;verticalAlign=middle;resizable=0;points=[];autosize=1;strokeColor=none;fillColor=none;" vertex="1" parent="1">
          <mxGeometry x="1230" y="166.25" width="100" height="40" as="geometry" />
        </mxCell>
        <mxCell id="6wUznwKkk6pUSenvLdBu-32" style="edgeStyle=orthogonalEdgeStyle;rounded=0;orthogonalLoop=1;jettySize=auto;html=1;entryX=0.87;entryY=0.014;entryDx=0;entryDy=0;entryPerimeter=0;" edge="1" parent="1" source="6wUznwKkk6pUSenvLdBu-31" target="6wUznwKkk6pUSenvLdBu-1">
          <mxGeometry relative="1" as="geometry" />
        </mxCell>
        <mxCell id="6wUznwKkk6pUSenvLdBu-33" style="edgeStyle=orthogonalEdgeStyle;rounded=0;orthogonalLoop=1;jettySize=auto;html=1;exitX=0.1;exitY=0.5;exitDx=0;exitDy=0;exitPerimeter=0;entryX=-0.05;entryY=0.629;entryDx=0;entryDy=0;entryPerimeter=0;" edge="1" parent="1" source="6wUznwKkk6pUSenvLdBu-12" target="6wUznwKkk6pUSenvLdBu-14">
          <mxGeometry relative="1" as="geometry">
            <Array as="points">
              <mxPoint x="610" y="422" />
              <mxPoint x="610" y="427" />
            </Array>
          </mxGeometry>
        </mxCell>
      </root>
    </mxGraphModel>
  </diagram>
</mxfile>
